<svg width="30" height="30" viewBox="0 0 30 30" fill="none" xmlns="http://www.w3.org/2000/svg">
<circle cx="15" cy="15" r="13.75" fill="white" stroke="#860D0B" stroke-width="2.5"/>
<path d="M15.2602 12.2695H15.6703V19.418C15.6703 19.8867 15.7719 20.1992 15.975 20.3555C16.1781 20.5117 16.5492 20.5898 17.0883 20.5898V21H12.4359V20.5898C13.1156 20.5898 13.5531 20.5156 13.7484 20.3672C13.9437 20.2109 14.0414 19.8945 14.0414 19.418V14.2031C14.0414 13.6875 13.9516 13.3477 13.7719 13.1836C13.5922 13.0195 13.1469 12.9375 12.4359 12.9375V12.5273L15.2602 12.2695ZM14.8852 7.875C15.1742 7.875 15.4164 7.97656 15.6117 8.17969C15.8148 8.375 15.9164 8.61719 15.9164 8.90625C15.9164 9.19531 15.8148 9.44531 15.6117 9.65625C15.4086 9.85938 15.1664 9.96094 14.8852 9.96094C14.5961 9.96094 14.3461 9.85938 14.1352 9.65625C13.9242 9.44531 13.8187 9.19531 13.8187 8.90625C13.8187 8.61719 13.9203 8.375 14.1234 8.17969C14.3344 7.97656 14.5883 7.875 14.8852 7.875Z" fill="#020300" fill-opacity="0.85"/>
</svg>
