<svg width="40" height="40" viewBox="0 0 40 40" fill="none" xmlns="http://www.w3.org/2000/svg">
<circle cx="19.9999" cy="19.9999" r="16.6667" fill="#76828E"/>
<path fill-rule="evenodd" clip-rule="evenodd" d="M30 13.5906C29.2647 13.9173 28.4734 14.1372 27.6435 14.2366C28.4908 13.7286 29.1414 12.9247 29.4474 11.9667C28.6554 12.4374 27.7761 12.778 26.8422 12.9627C26.0936 12.1654 25.0263 11.6667 23.8471 11.6667C21.5812 11.6667 19.744 13.504 19.744 15.7698C19.744 16.0911 19.7807 16.4044 19.8507 16.7051C16.4402 16.5344 13.4171 14.9005 11.3932 12.418C11.0399 13.024 10.8379 13.7286 10.8379 14.4806C10.8379 15.9038 11.5612 17.1597 12.6632 17.8957C11.9899 17.8743 11.3579 17.6897 10.8039 17.3824V17.4337C10.8039 19.4222 12.2192 21.0801 14.0951 21.4581C13.7511 21.5514 13.3884 21.6021 13.0145 21.6021C12.7498 21.6021 12.4925 21.5761 12.2418 21.5281C12.7638 23.158 14.2797 24.3446 16.0749 24.3779C14.671 25.4778 12.9018 26.1344 10.9793 26.1344C10.6473 26.1344 10.3206 26.1151 10 26.0764C11.8159 27.2404 13.9724 27.9203 16.2896 27.9203C23.8364 27.9203 27.9635 21.6681 27.9635 16.2464C27.9635 16.0685 27.9601 15.8911 27.9515 15.7158C28.7541 15.1359 29.45 14.4132 30 13.5906Z" fill="#DDE0E3"/>
</svg>
